<svg id="visual" viewBox="0 0 900 600" width="900" height="600" xmlns="http://www.w3.org/2000/svg" xmlns:xlink="http://www.w3.org/1999/xlink" version="1.1"><rect x="0" y="0" width="900" height="600" fill="#0B1120"></rect><path d="M0 418L21.5 416.3C43 414.7 86 411.3 128.8 402C171.7 392.7 214.3 377.3 257.2 379.3C300 381.3 343 400.7 385.8 400.3C428.7 400 471.3 380 514.2 371.5C557 363 600 366 642.8 374C685.7 382 728.3 395 771.2 392.5C814 390 857 372 878.5 363L900 354L900 601L878.5 601C857 601 814 601 771.2 601C728.3 601 685.7 601 642.8 601C600 601 557 601 514.2 601C471.3 601 428.7 601 385.8 601C343 601 300 601 257.2 601C214.3 601 171.7 601 128.8 601C86 601 43 601 21.5 601L0 601Z" fill="#fa7268"></path><path d="M0 448L21.5 444.5C43 441 86 434 128.8 436.8C171.7 439.7 214.3 452.3 257.2 450.2C300 448 343 431 385.8 430.2C428.7 429.3 471.3 444.7 514.2 454C557 463.3 600 466.7 642.8 465.5C685.7 464.3 728.3 458.7 771.2 459.5C814 460.3 857 467.7 878.5 471.3L900 475L900 601L878.5 601C857 601 814 601 771.2 601C728.3 601 685.7 601 642.8 601C600 601 557 601 514.2 601C471.3 601 428.7 601 385.8 601C343 601 300 601 257.2 601C214.3 601 171.7 601 128.8 601C86 601 43 601 21.5 601L0 601Z" fill="#ef5f67"></path><path d="M0 469L21.5 470C43 471 86 473 128.8 478.8C171.7 484.7 214.3 494.3 257.2 488.5C300 482.7 343 461.3 385.8 450.2C428.7 439 471.3 438 514.2 447C557 456 600 475 642.8 477C685.7 479 728.3 464 771.2 457.2C814 450.3 857 451.7 878.5 452.3L900 453L900 601L878.5 601C857 601 814 601 771.2 601C728.3 601 685.7 601 642.8 601C600 601 557 601 514.2 601C471.3 601 428.7 601 385.8 601C343 601 300 601 257.2 601C214.3 601 171.7 601 128.8 601C86 601 43 601 21.5 601L0 601Z" fill="#e34c67"></path><path d="M0 516L21.5 518C43 520 86 524 128.8 521.7C171.7 519.3 214.3 510.7 257.2 503C300 495.3 343 488.7 385.8 493.8C428.7 499 471.3 516 514.2 518.2C557 520.3 600 507.7 642.8 499.3C685.7 491 728.3 487 771.2 494.3C814 501.7 857 520.3 878.5 529.7L900 539L900 601L878.5 601C857 601 814 601 771.2 601C728.3 601 685.7 601 642.8 601C600 601 557 601 514.2 601C471.3 601 428.7 601 385.8 601C343 601 300 601 257.2 601C214.3 601 171.7 601 128.8 601C86 601 43 601 21.5 601L0 601Z" fill="#d53867"></path><path d="M0 536L21.5 539.8C43 543.7 86 551.3 128.8 556C171.7 560.7 214.3 562.3 257.2 562.3C300 562.3 343 560.7 385.8 559.5C428.7 558.3 471.3 557.7 514.2 557.2C557 556.7 600 556.3 642.8 552.8C685.7 549.3 728.3 542.7 771.2 539.8C814 537 857 538 878.5 538.5L900 539L900 601L878.5 601C857 601 814 601 771.2 601C728.3 601 685.7 601 642.8 601C600 601 557 601 514.2 601C471.3 601 428.7 601 385.8 601C343 601 300 601 257.2 601C214.3 601 171.7 601 128.8 601C86 601 43 601 21.5 601L0 601Z" fill="#c62368"></path></svg>